# xmcd CD database file
# Generated: Mon Oct 27 06:59:15 2003 by KSCD
# 
# Track frame offsets:
#       182
#       14440
#       29947
#       44475
#       60275
#       75547
#       89787
#       105502
#       120232
#       133255
#       145677
#       159925
#       179542
#       191400
#
# Disc length: 2672 seconds
#
# Revision: 3
# Processed by: cddbd v1.4PL0 Copyright (c) Steve Scherf et al.
# Submitted via: Kscd 1.3.3
#
DISCID=ba0a6e0e
DTITLE=Pholhas - O melhor de
DYEAR=1900
DGENRE=
TTITLE0=My mistake
TTITLE1=
TTITLE2=
TTITLE3=
TTITLE4=
TTITLE5=
TTITLE6=
TTITLE7=
TTITLE8=
TTITLE9=
TTITLE10=
TTITLE11=
TTITLE12=
TTITLE13=
EXTD=
EXTT0=
EXTT1=
EXTT2=
EXTT3=
EXTT4=
EXTT5=
EXTT6=
EXTT7=
EXTT8=
EXTT9=
EXTT10=
EXTT11=
EXTT12=
EXTT13=
PLAYORDER=
